<?xml version="1.0" encoding="UTF-8" standalone="no"?><!DOCTYPE svg PUBLIC "-//W3C//DTD SVG 1.1//EN" "http://www.w3.org/Graphics/SVG/1.1/DTD/svg11.dtd"><svg width="100%" height="100%" viewBox="0 0 42 10" version="1.1" xmlns="http://www.w3.org/2000/svg" xmlns:xlink="http://www.w3.org/1999/xlink" xml:space="preserve" xmlns:serif="http://www.serif.com/" style="fill-rule:evenodd;clip-rule:evenodd;stroke-linejoin:round;stroke-miterlimit:1.41421;"><path d="M11.526,2.818l-0.326,0l0,1.793c0,0.994 0,1.573 0.006,1.743l0.32,0l0,-3.536Z" style="fill:#135d8c;fill-rule:nonzero;"/><path d="M14.951,5.051c0,-0.258 -0.006,-0.471 -0.013,-0.635c-0.006,-0.17 -0.081,-0.315 -0.213,-0.447c-0.132,-0.132 -0.282,-0.207 -0.452,-0.22c-0.232,-0.019 -0.526,-0.025 -0.884,-0.025l-0.013,0c-0.094,0 -0.269,0.006 -0.533,0.025c-0.132,0.006 -0.257,0.063 -0.376,0.157l0,-0.138l-0.301,0l0,2.579l0.301,0l0,-1.843c0,-0.252 0.194,-0.44 0.445,-0.466c0.013,-0.006 0.126,-0.006 0.333,-0.012l0.138,0l0.778,0.006c0.269,0 0.482,0.227 0.482,0.497l0,1.818l0.302,0l0.006,-1.296Z" style="fill:#135d8c;fill-rule:nonzero;"/><path d="M16.889,3.749l-0.746,0l0,-0.931l-0.295,0l-0.006,0.931l-0.421,0l0,0.302l0.421,0l0,2.303l0.301,0l0,-2.303l0.746,0l0,-0.302Z" style="fill:#135d8c;fill-rule:nonzero;"/><path d="M20.233,5.045c0,-0.245 -0.007,-0.453 -0.019,-0.623c-0.007,-0.17 -0.076,-0.321 -0.207,-0.453c-0.132,-0.132 -0.283,-0.207 -0.452,-0.22c-0.232,-0.019 -0.527,-0.025 -0.884,-0.025l-0.013,0c-0.339,0 -0.627,0.006 -0.872,0.025c-0.188,0.013 -0.345,0.094 -0.47,0.239c-0.113,0.132 -0.182,0.296 -0.201,0.491c-0.006,0.038 -0.006,0.226 -0.006,0.572l0,0.032c0,0.233 0.006,0.428 0.012,0.597c0.013,0.17 0.082,0.321 0.213,0.454c0.132,0.132 0.283,0.201 0.452,0.213c0.232,0.019 0.527,0.026 0.885,0.026l0.006,0c0.357,0 0.646,-0.007 0.878,-0.026c0.169,-0.012 0.314,-0.081 0.445,-0.213c0.132,-0.133 0.207,-0.277 0.214,-0.447c0.006,-0.082 0.006,-0.126 0.006,-0.132l-0.295,0l0,0.006c0,0.27 -0.213,0.497 -0.483,0.497c-0.571,0.006 -0.828,0.006 -0.778,0.006l-0.771,-0.006c-0.27,0 -0.483,-0.227 -0.483,-0.497l0,-0.365l2.816,0l0,-0.151l0.007,0Zm-2.823,-0.151l0,-0.365c0,-0.27 0.213,-0.497 0.483,-0.497c0.433,-0.006 0.69,-0.006 0.771,-0.006l0.778,0.006c0.27,0 0.483,0.227 0.483,0.497l0,0.365l-2.515,0Z" style="fill:#135d8c;fill-rule:nonzero;"/><rect x="20.734" y="2.812" width="0.301" height="3.542" style="fill:#135d8c;fill-rule:nonzero;"/><rect x="21.707" y="2.812" width="0.301" height="3.542" style="fill:#135d8c;fill-rule:nonzero;"/><path d="M23.187,3.365l0,-0.553l-0.301,0l0,0.553l0.301,0Zm0,2.989l0,-2.586l-0.301,0l0,2.586l0.301,0Z" style="fill:#135d8c;fill-rule:nonzero;"/><path d="M25.276,3.749l-0.747,0l0,-0.931l-0.294,0l-0.007,0.931l-0.42,0l0,0.302l0.42,0l0,2.303l0.301,0l0,-2.303l0.747,0l0,-0.302Z" style="fill:#135d8c;fill-rule:nonzero;"/><path d="M26.443,4.007l0,-0.289l-0.327,0c-0.119,0 -0.25,0.05 -0.382,0.151l0,-0.101l-0.295,0l-0.006,2.586l0.301,0l0,-1.466c-0.006,-0.013 -0.006,-0.044 -0.006,-0.101c-0.007,-0.088 -0.007,-0.189 0,-0.302c0.006,-0.207 0.106,-0.352 0.301,-0.44c0.056,-0.025 0.106,-0.038 0.15,-0.038l0.264,0Z" style="fill:#135d8c;fill-rule:nonzero;"/><path d="M30.043,5.039c0,-0.246 -0.006,-0.447 -0.019,-0.617c-0.012,-0.17 -0.081,-0.321 -0.213,-0.453c-0.132,-0.132 -0.282,-0.207 -0.452,-0.22c-0.232,-0.019 -0.52,-0.025 -0.878,-0.025l-0.019,0c-0.332,0 -0.621,0.006 -0.865,0.025c-0.188,0.013 -0.345,0.094 -0.471,0.239c-0.113,0.132 -0.182,0.296 -0.2,0.491c-0.007,0.038 -0.007,0.226 -0.007,0.572l0,0.032c0,0.233 0.007,0.428 0.013,0.597c0.012,0.17 0.081,0.321 0.213,0.454c0.132,0.132 0.282,0.201 0.452,0.213c0.232,0.019 0.527,0.026 0.884,0.026c0.345,0 0.634,-0.007 0.878,-0.026c0.189,-0.012 0.345,-0.088 0.465,-0.232c0.113,-0.132 0.182,-0.296 0.207,-0.491c0.006,-0.069 0.012,-0.258 0.012,-0.573l0,-0.012Zm-0.307,0.522c0,0.27 -0.22,0.497 -0.489,0.497c-0.571,0.006 -0.828,0.006 -0.772,0.006l-0.772,-0.006c-0.269,0 -0.489,-0.227 -0.489,-0.497l0,-1.032c0,-0.27 0.22,-0.497 0.489,-0.497c0.433,-0.006 0.69,-0.006 0.772,-0.006l0.772,0.006c0.269,0 0.489,0.227 0.489,0.497l0,1.032Z" style="fill:#135d8c;fill-rule:nonzero;"/><path d="M33.236,5.051c0,-0.258 -0.006,-0.471 -0.013,-0.635c-0.006,-0.17 -0.081,-0.315 -0.213,-0.447c-0.131,-0.132 -0.282,-0.207 -0.451,-0.22c-0.232,-0.019 -0.527,-0.025 -0.885,-0.025l-0.012,0c-0.095,0 -0.27,0.006 -0.534,0.025c-0.131,0.006 -0.257,0.063 -0.376,0.157l0,-0.138l-0.301,0l0,2.579l0.301,0l0,-1.843c0,-0.252 0.194,-0.44 0.445,-0.466c0.013,-0.006 0.126,-0.006 0.333,-0.012l0.138,0l0.778,0.006c0.269,0 0.483,0.227 0.483,0.497l0,1.818l0.301,0l0.006,-1.296Z" style="fill:#135d8c;fill-rule:nonzero;"/><path d="M34.365,3.365l0,-0.553l-0.301,0l0,0.553l0.301,0Zm0,2.989l0,-2.586l-0.301,0l0,2.586l0.301,0Z" style="fill:#135d8c;fill-rule:nonzero;"/><path d="M36.517,4.592l0.953,-0.811l-0.464,0l-1.618,1.371l0,-2.334l-0.301,0l0,3.542l0.301,0l0,-0.818l0.897,-0.761l1.398,1.585l0.402,0l-1.568,-1.774Z" style="fill:#135d8c;fill-rule:nonzero;"/><path d="M41.667,4.416c0,-0.17 -0.069,-0.315 -0.214,-0.447c-0.138,-0.132 -0.294,-0.207 -0.464,-0.22c-0.232,-0.019 -0.527,-0.025 -0.878,-0.025l-0.006,0c-0.264,0 -0.508,0.006 -0.74,0.025c-0.17,0.013 -0.32,0.088 -0.452,0.22c-0.132,0.132 -0.201,0.277 -0.207,0.447l-0.006,0.038l0.288,0c0.044,-0.233 0.251,-0.428 0.483,-0.428l1.412,0c0.269,0 0.483,0.233 0.483,0.503l0,0.246c-0.32,-0.007 -0.734,-0.007 -1.242,-0.007l-0.013,0c-0.289,0 -0.533,0 -0.728,0.007c-0.213,0.006 -0.401,0.081 -0.558,0.239c-0.157,0.157 -0.232,0.339 -0.232,0.553c0,0.233 0.082,0.422 0.245,0.573c0.163,0.151 0.364,0.226 0.602,0.226l0.69,0c0.495,0 0.709,0 0.64,0.007c0.257,-0.019 0.458,-0.076 0.596,-0.183l0,0.157l0.294,0c0.007,-0.05 0.007,-0.094 0.007,-0.132l0,-1.799Zm-0.301,1.101c0,0.352 -0.22,0.541 -0.659,0.56c0.031,0 0.025,0 -0.006,-0.006l-0.571,0c-0.32,0 -0.552,0 -0.709,-0.007c-0.151,-0.006 -0.276,-0.05 -0.383,-0.144c-0.1,-0.095 -0.15,-0.214 -0.15,-0.359c0,-0.302 0.219,-0.497 0.527,-0.497c0.69,-0.006 1.066,-0.006 1.135,-0.006l0.816,0l0,0.459Z" style="fill:#135d8c;fill-rule:nonzero;"/><path d="M24.359,8.45l0,-1.344c0,-0.037 0.008,-0.065 0.025,-0.083c0.017,-0.018 0.038,-0.027 0.064,-0.027c0.033,0 0.077,0.008 0.098,0.026c0.02,0.017 0.061,0.05 0.081,0.099l0.198,0.731l0.201,-0.731c0.02,-0.049 0.061,-0.082 0.081,-0.099c0.02,-0.018 0.064,-0.026 0.097,-0.026c0.026,0 0.047,0.009 0.064,0.027c0.017,0.018 0.025,0.046 0.025,0.083l0,1.344c0,0.022 -0.008,0.04 -0.026,0.053c-0.017,0.014 -0.038,0.02 -0.063,0.02c-0.024,0 -0.044,-0.006 -0.062,-0.02c-0.018,-0.013 -0.027,-0.031 -0.027,-0.053l0,-1.003l-0.226,0.784c-0.017,0.033 -0.038,0.05 -0.065,0.05c-0.027,0 -0.048,-0.017 -0.061,-0.05l-0.226,-0.797l0,1.016c0,0.022 -0.008,0.04 -0.026,0.053c-0.017,0.014 -0.038,0.02 -0.063,0.02c-0.023,0 -0.044,-0.006 -0.062,-0.02c-0.018,-0.013 -0.027,-0.031 -0.027,-0.053Z" style="fill:#636466;fill-rule:nonzero;"/><path d="M25.597,8.45l0,-1.381c0,-0.022 0.006,-0.04 0.02,-0.053c0.013,-0.014 0.029,-0.02 0.047,-0.02l0.516,0c0.016,0 0.029,0.009 0.037,0.029c0.009,0.019 0.013,0.042 0.013,0.067c0,0.028 -0.004,0.051 -0.014,0.071c-0.009,0.019 -0.021,0.029 -0.036,0.029l-0.43,0l0,0.479l0.362,0c0.016,0 0.028,0.008 0.037,0.026c0.01,0.017 0.014,0.038 0.014,0.063c0,0.023 -0.004,0.043 -0.013,0.06c-0.009,0.017 -0.021,0.026 -0.038,0.026l-0.362,0l0,0.481l0.43,0c0.015,0 0.027,0.01 0.036,0.029c0.01,0.02 0.014,0.043 0.014,0.071c0,0.025 -0.004,0.047 -0.013,0.067c-0.008,0.02 -0.021,0.029 -0.037,0.029l-0.516,0c-0.018,0 -0.034,-0.006 -0.047,-0.02c-0.014,-0.013 -0.02,-0.031 -0.02,-0.053Z" style="fill:#636466;fill-rule:nonzero;"/><path d="M26.359,8.431c0,-0.008 0,-0.014 0.001,-0.018l0.29,-1.355c0.011,-0.05 0.044,-0.075 0.097,-0.075c0.055,0 0.088,0.025 0.099,0.075l0.288,1.355c0.002,0.008 0.003,0.014 0.003,0.018c0,0.025 -0.01,0.047 -0.031,0.065c-0.021,0.018 -0.043,0.027 -0.066,0.027c-0.028,0 -0.046,-0.015 -0.053,-0.046l-0.059,-0.296l-0.36,0l-0.06,0.296c-0.006,0.031 -0.024,0.046 -0.053,0.046c-0.024,0 -0.046,-0.009 -0.066,-0.027c-0.02,-0.018 -0.03,-0.04 -0.03,-0.065Zm0.243,-0.428l0.291,0l-0.146,-0.717l-0.145,0.717Z" style="fill:#636466;fill-rule:nonzero;"/><path d="M27.342,8.45l0,-1.381c0,-0.049 0.028,-0.073 0.084,-0.073c0.03,0 0.053,0.008 0.071,0.026c0.018,0.017 0.037,0.05 0.056,0.099l0.352,0.905l0,-0.959c0,-0.024 0.008,-0.042 0.025,-0.054c0.016,-0.011 0.036,-0.017 0.059,-0.017c0.023,0 0.043,0.006 0.059,0.017c0.017,0.012 0.025,0.03 0.025,0.054l0,1.383c0,0.022 -0.008,0.04 -0.025,0.053c-0.016,0.014 -0.036,0.02 -0.059,0.02c-0.044,0 -0.078,-0.027 -0.1,-0.081l-0.379,-0.951l0,0.959c0,0.022 -0.008,0.04 -0.025,0.053c-0.016,0.014 -0.036,0.02 -0.059,0.02c-0.022,0 -0.042,-0.006 -0.059,-0.02c-0.017,-0.013 -0.025,-0.031 -0.025,-0.053Z" style="fill:#636466;fill-rule:nonzero;"/><path d="M28.34,8.45l0,-1.383c0,-0.024 0.009,-0.042 0.026,-0.054c0.017,-0.011 0.039,-0.017 0.063,-0.017c0.025,0 0.046,0.006 0.063,0.017c0.018,0.012 0.026,0.03 0.026,0.054l0,1.383c0,0.022 -0.008,0.04 -0.026,0.053c-0.017,0.014 -0.038,0.02 -0.063,0.02c-0.023,0 -0.044,-0.006 -0.062,-0.02c-0.018,-0.013 -0.027,-0.031 -0.027,-0.053Z" style="fill:#636466;fill-rule:nonzero;"/><path d="M28.822,8.45l0,-1.381c0,-0.049 0.027,-0.073 0.081,-0.073c0.028,0 0.051,0.008 0.069,0.026c0.017,0.017 0.035,0.05 0.053,0.099l0.34,0.905l0,-0.959c0,-0.024 0.008,-0.042 0.023,-0.054c0.016,-0.011 0.035,-0.017 0.058,-0.017c0.022,0 0.041,0.006 0.057,0.017c0.016,0.012 0.024,0.03 0.024,0.054l0,1.383c0,0.022 -0.008,0.04 -0.024,0.053c-0.016,0.014 -0.035,0.02 -0.057,0.02c-0.043,0 -0.075,-0.027 -0.097,-0.081l-0.365,-0.951l0,0.959c0,0.022 -0.008,0.04 -0.024,0.053c-0.016,0.014 -0.035,0.02 -0.057,0.02c-0.022,0 -0.041,-0.006 -0.057,-0.02c-0.016,-0.013 -0.024,-0.031 -0.024,-0.053Z" style="fill:#636466;fill-rule:nonzero;"/><path d="M29.794,8.07l0,-0.608c0,-0.161 0.031,-0.278 0.093,-0.353c0.063,-0.076 0.144,-0.113 0.246,-0.113c0.103,0 0.187,0.035 0.252,0.105c0.065,0.071 0.098,0.164 0.098,0.281c0,0.041 -0.007,0.069 -0.02,0.084c-0.012,0.015 -0.033,0.023 -0.062,0.023c-0.053,0 -0.08,-0.025 -0.081,-0.073c-0.011,-0.149 -0.072,-0.224 -0.183,-0.224c-0.12,0 -0.181,0.09 -0.181,0.27l0,0.608c0,0.179 0.061,0.269 0.181,0.269c0.059,0 0.104,-0.022 0.135,-0.066c0.032,-0.045 0.048,-0.113 0.048,-0.203l0,-0.172l-0.155,0c-0.016,0 -0.029,-0.008 -0.038,-0.026c-0.01,-0.017 -0.014,-0.038 -0.014,-0.063c0,-0.023 0.004,-0.043 0.014,-0.061c0.009,-0.018 0.022,-0.027 0.038,-0.027l0.264,0c0.016,0 0.029,0.007 0.039,0.022c0.01,0.014 0.015,0.032 0.015,0.053l0,0.274c0,0.16 -0.032,0.278 -0.095,0.353c-0.063,0.075 -0.146,0.113 -0.251,0.113c-0.104,0 -0.187,-0.038 -0.25,-0.113c-0.062,-0.075 -0.093,-0.193 -0.093,-0.353Z" style="fill:#636466;fill-rule:nonzero;"/><path d="M30.718,8.45l0,-1.381c0,-0.022 0.007,-0.04 0.02,-0.053c0.014,-0.014 0.03,-0.02 0.049,-0.02l0.519,0c0.017,0 0.029,0.009 0.038,0.028c0.008,0.019 0.012,0.041 0.012,0.068c0,0.028 -0.004,0.051 -0.013,0.071c-0.009,0.019 -0.021,0.029 -0.037,0.029l-0.432,0l0,0.479l0.311,0c0.016,0 0.028,0.008 0.037,0.026c0.009,0.017 0.013,0.038 0.013,0.063c0,0.023 -0.004,0.043 -0.012,0.06c-0.009,0.017 -0.021,0.026 -0.038,0.026l-0.311,0l0,0.604c0,0.024 -0.007,0.042 -0.023,0.054c-0.015,0.013 -0.033,0.019 -0.055,0.019c-0.021,0 -0.039,-0.006 -0.055,-0.019c-0.015,-0.012 -0.023,-0.03 -0.023,-0.054Z" style="fill:#636466;fill-rule:nonzero;"/><path d="M31.515,8.07l0,-1.003c0,-0.024 0.007,-0.042 0.023,-0.054c0.016,-0.011 0.035,-0.017 0.057,-0.017c0.022,0 0.041,0.006 0.057,0.017c0.016,0.012 0.023,0.03 0.023,0.054l0,1.003c0,0.09 0.017,0.158 0.049,0.203c0.032,0.044 0.078,0.066 0.136,0.066c0.124,0 0.187,-0.09 0.187,-0.269l0,-1.003c0,-0.024 0.007,-0.042 0.023,-0.054c0.016,-0.011 0.035,-0.017 0.057,-0.017c0.022,0 0.041,0.006 0.057,0.017c0.015,0.012 0.023,0.03 0.023,0.054l0,1.003c0,0.16 -0.031,0.278 -0.095,0.353c-0.063,0.075 -0.147,0.113 -0.252,0.113c-0.104,0 -0.187,-0.038 -0.251,-0.113c-0.063,-0.075 -0.094,-0.193 -0.094,-0.353Z" style="fill:#636466;fill-rule:nonzero;"/><path d="M32.501,8.45l0,-1.383c0,-0.024 0.009,-0.042 0.026,-0.054c0.018,-0.011 0.039,-0.017 0.063,-0.017c0.025,0 0.046,0.006 0.063,0.017c0.018,0.012 0.027,0.03 0.027,0.054l0,1.26l0.356,0c0.017,0 0.03,0.01 0.039,0.029c0.01,0.02 0.015,0.043 0.015,0.069c0,0.027 -0.005,0.049 -0.015,0.069c-0.009,0.02 -0.022,0.029 -0.039,0.029l-0.456,0c-0.021,0 -0.04,-0.006 -0.055,-0.02c-0.016,-0.013 -0.024,-0.031 -0.024,-0.053Z" style="fill:#636466;fill-rule:nonzero;"/><path d="M33.641,8.45l0,-1.383c0,-0.024 0.008,-0.042 0.026,-0.054c0.017,-0.011 0.038,-0.017 0.063,-0.017c0.025,0 0.046,0.006 0.063,0.017c0.017,0.012 0.026,0.03 0.026,0.054l0,1.383c0,0.022 -0.009,0.04 -0.026,0.053c-0.017,0.014 -0.038,0.02 -0.063,0.02c-0.024,0 -0.044,-0.006 -0.062,-0.02c-0.018,-0.013 -0.027,-0.031 -0.027,-0.053Z" style="fill:#636466;fill-rule:nonzero;"/><path d="M34.041,8.45l0,-1.381c0,-0.049 0.03,-0.073 0.09,-0.073c0.031,0 0.056,0.008 0.075,0.026c0.019,0.017 0.039,0.05 0.059,0.099l0.374,0.905l0,-0.959c0,-0.024 0.009,-0.042 0.026,-0.054c0.017,-0.011 0.038,-0.017 0.063,-0.017c0.025,0 0.046,0.006 0.063,0.017c0.018,0.012 0.026,0.03 0.026,0.054l0,1.383c0,0.022 -0.008,0.04 -0.026,0.053c-0.017,0.014 -0.038,0.02 -0.063,0.02c-0.047,0 -0.082,-0.027 -0.106,-0.081l-0.402,-0.951l0,0.959c0,0.022 -0.009,0.04 -0.026,0.053c-0.018,0.014 -0.039,0.02 -0.063,0.02c-0.024,0 -0.045,-0.006 -0.063,-0.02c-0.018,-0.013 -0.027,-0.031 -0.027,-0.053Z" style="fill:#636466;fill-rule:nonzero;"/><path d="M35.039,8.45l0,-1.381c0,-0.049 0.03,-0.073 0.09,-0.073c0.031,0 0.056,0.008 0.075,0.026c0.02,0.017 0.039,0.05 0.059,0.099l0.374,0.905l0,-0.959c0,-0.024 0.009,-0.042 0.026,-0.054c0.018,-0.011 0.039,-0.017 0.063,-0.017c0.025,0 0.046,0.006 0.063,0.017c0.018,0.012 0.027,0.03 0.027,0.054l0,1.383c0,0.022 -0.009,0.04 -0.027,0.053c-0.017,0.014 -0.038,0.02 -0.063,0.02c-0.047,0 -0.082,-0.027 -0.106,-0.081l-0.402,-0.951l0,0.959c0,0.022 -0.009,0.04 -0.026,0.053c-0.018,0.014 -0.039,0.02 -0.063,0.02c-0.024,0 -0.045,-0.006 -0.063,-0.02c-0.018,-0.013 -0.027,-0.031 -0.027,-0.053Z" style="fill:#636466;fill-rule:nonzero;"/><path d="M36.026,8.07l0,-0.608c0,-0.161 0.034,-0.278 0.103,-0.353c0.068,-0.076 0.16,-0.113 0.274,-0.113c0.114,0 0.206,0.037 0.275,0.113c0.069,0.075 0.104,0.192 0.104,0.353l0,0.608c0,0.16 -0.035,0.278 -0.104,0.353c-0.069,0.075 -0.161,0.113 -0.275,0.113c-0.114,0 -0.206,-0.038 -0.274,-0.113c-0.069,-0.075 -0.103,-0.193 -0.103,-0.353Zm0.178,0c0,0.179 0.067,0.269 0.199,0.269c0.064,0 0.113,-0.022 0.148,-0.066c0.035,-0.045 0.052,-0.113 0.052,-0.203l0,-0.608c0,-0.091 -0.017,-0.158 -0.052,-0.203c-0.035,-0.045 -0.084,-0.067 -0.148,-0.067c-0.132,0 -0.199,0.09 -0.199,0.27l0,0.608Z" style="fill:#636466;fill-rule:nonzero;"/><path d="M36.942,7.088c0,-0.025 0.011,-0.047 0.032,-0.065c0.021,-0.018 0.044,-0.027 0.068,-0.027c0.031,0 0.049,0.015 0.056,0.046l0.25,1.191l0.249,-1.191c0.007,-0.031 0.025,-0.046 0.054,-0.046c0.024,0 0.047,0.009 0.069,0.027c0.022,0.018 0.033,0.04 0.033,0.065c0,0.004 -0.002,0.01 -0.004,0.018l-0.299,1.355c-0.005,0.023 -0.018,0.042 -0.037,0.055c-0.019,0.013 -0.041,0.02 -0.065,0.02c-0.055,0 -0.089,-0.025 -0.101,-0.075l-0.303,-1.355c-0.001,-0.004 -0.002,-0.01 -0.002,-0.018Z" style="fill:#636466;fill-rule:nonzero;"/><path d="M37.83,8.431c0,-0.008 0.001,-0.014 0.002,-0.018l0.28,-1.355c0.012,-0.05 0.043,-0.075 0.095,-0.075c0.053,0 0.085,0.025 0.096,0.075l0.279,1.355c0.002,0.008 0.003,0.014 0.003,0.018c0,0.025 -0.01,0.047 -0.03,0.065c-0.02,0.018 -0.042,0.027 -0.064,0.027c-0.028,0 -0.045,-0.015 -0.051,-0.046l-0.058,-0.296l-0.349,0l-0.057,0.296c-0.007,0.031 -0.024,0.046 -0.053,0.046c-0.022,0 -0.043,-0.009 -0.063,-0.027c-0.02,-0.018 -0.03,-0.04 -0.03,-0.065Zm0.236,-0.428l0.282,0l-0.141,-0.717l-0.141,0.717Z" style="fill:#636466;fill-rule:nonzero;"/><path d="M38.55,7.096c0,-0.027 0.005,-0.05 0.015,-0.07c0.011,-0.02 0.025,-0.03 0.044,-0.03l0.699,0c0.019,0 0.033,0.009 0.044,0.029c0.01,0.019 0.015,0.042 0.015,0.069c0,0.029 -0.006,0.054 -0.016,0.074c-0.011,0.02 -0.025,0.03 -0.043,0.03l-0.259,0l0,1.252c0,0.022 -0.009,0.04 -0.027,0.053c-0.018,0.014 -0.039,0.02 -0.063,0.02c-0.024,0 -0.045,-0.006 -0.063,-0.02c-0.017,-0.013 -0.026,-0.031 -0.026,-0.053l0,-1.252l-0.261,0c-0.018,0 -0.032,-0.01 -0.043,-0.03c-0.01,-0.02 -0.016,-0.044 -0.016,-0.072Z" style="fill:#636466;fill-rule:nonzero;"/><path d="M39.501,8.45l0,-1.383c0,-0.024 0.009,-0.042 0.026,-0.054c0.018,-0.011 0.039,-0.017 0.064,-0.017c0.024,0 0.045,0.006 0.063,0.017c0.017,0.012 0.026,0.03 0.026,0.054l0,1.383c0,0.022 -0.009,0.04 -0.026,0.053c-0.018,0.014 -0.039,0.02 -0.063,0.02c-0.024,0 -0.045,-0.006 -0.063,-0.02c-0.018,-0.013 -0.027,-0.031 -0.027,-0.053Z" style="fill:#636466;fill-rule:nonzero;"/><path d="M39.89,8.07l0,-0.608c0,-0.161 0.034,-0.278 0.103,-0.353c0.068,-0.076 0.16,-0.113 0.274,-0.113c0.115,0 0.206,0.037 0.276,0.113c0.069,0.075 0.103,0.192 0.103,0.353l0,0.608c0,0.16 -0.034,0.278 -0.103,0.353c-0.07,0.075 -0.161,0.113 -0.276,0.113c-0.114,0 -0.206,-0.038 -0.274,-0.113c-0.069,-0.075 -0.103,-0.193 -0.103,-0.353Zm0.179,0c0,0.179 0.066,0.269 0.198,0.269c0.064,0 0.114,-0.022 0.148,-0.066c0.035,-0.045 0.053,-0.113 0.053,-0.203l0,-0.608c0,-0.091 -0.018,-0.158 -0.053,-0.203c-0.034,-0.045 -0.084,-0.067 -0.148,-0.067c-0.132,0 -0.198,0.09 -0.198,0.27l0,0.608Z" style="fill:#636466;fill-rule:nonzero;"/><path d="M40.897,8.45l0,-1.381c0,-0.049 0.028,-0.073 0.086,-0.073c0.03,0 0.054,0.008 0.072,0.026c0.019,0.017 0.038,0.05 0.057,0.099l0.36,0.905l0,-0.959c0,-0.024 0.008,-0.042 0.025,-0.054c0.017,-0.011 0.037,-0.017 0.061,-0.017c0.023,0 0.044,0.006 0.06,0.017c0.017,0.012 0.025,0.03 0.025,0.054l0,1.383c0,0.022 -0.008,0.04 -0.025,0.053c-0.016,0.014 -0.037,0.02 -0.06,0.02c-0.046,0 -0.08,-0.027 -0.102,-0.081l-0.388,-0.951l0,0.959c0,0.022 -0.008,0.04 -0.025,0.053c-0.016,0.014 -0.037,0.02 -0.06,0.02c-0.023,0 -0.043,-0.006 -0.06,-0.02c-0.018,-0.013 -0.026,-0.031 -0.026,-0.053Z" style="fill:#636466;fill-rule:nonzero;"/><path d="M2.597,3.569c-0.277,-0.071 -0.574,0.156 -0.663,0.507c-0.089,0.35 0.064,0.691 0.34,0.762c0.278,0.071 0.574,-0.156 0.663,-0.506c0.089,-0.351 -0.064,-0.692 -0.34,-0.763Zm1.681,0.133c0.294,-0.209 0.397,-0.569 0.231,-0.802c-0.166,-0.234 -0.538,-0.253 -0.831,-0.043c-0.293,0.209 -0.397,0.569 -0.231,0.802c0.165,0.234 0.538,0.253 0.831,0.043Zm0.12,3.757c0.154,-0.241 0.034,-0.595 -0.269,-0.79c-0.302,-0.196 -0.673,-0.159 -0.828,0.082c-0.155,0.241 -0.035,0.595 0.268,0.791c0.303,0.195 0.674,0.159 0.829,-0.083Zm1.905,-1.855c-0.24,-0.335 -0.776,-0.36 -1.196,-0.056c-0.42,0.304 -0.566,0.821 -0.327,1.156c0.24,0.335 0.776,0.36 1.196,0.056c0.421,-0.304 0.567,-0.821 0.327,-1.156Zm1.461,-0.723c-0.078,-0.421 -0.41,-0.713 -0.744,-0.652c-0.333,0.061 -0.54,0.453 -0.463,0.874c0.077,0.422 0.41,0.714 0.743,0.653c0.333,-0.062 0.541,-0.453 0.464,-0.875Zm-2.441,-0.225c0.462,0.192 0.959,0.049 1.11,-0.318c0.152,-0.367 -0.1,-0.82 -0.561,-1.012c-0.462,-0.191 -0.959,-0.049 -1.11,0.318c-0.152,0.368 0.1,0.821 0.561,1.012Zm-1.307,-0.49c-0.391,-0.064 -0.774,0.284 -0.855,0.778c-0.081,0.494 0.169,0.947 0.56,1.012c0.391,0.065 0.773,-0.284 0.854,-0.777c0.082,-0.495 -0.169,-0.947 -0.559,-1.013Zm1.331,-1.244c0.346,0.099 0.688,-0.035 0.763,-0.3c0.075,-0.265 -0.145,-0.56 -0.491,-0.659c-0.346,-0.099 -0.688,0.035 -0.763,0.3c-0.076,0.265 0.144,0.56 0.491,0.659Zm2.027,0.887c0.213,-0.173 0.209,-0.532 -0.008,-0.802c-0.217,-0.269 -0.567,-0.347 -0.78,-0.174c-0.213,0.173 -0.21,0.532 0.008,0.802c0.217,0.269 0.567,0.347 0.78,0.174Zm-2.029,3.433c-0.336,0.079 -0.558,0.362 -0.495,0.629c0.063,0.268 0.387,0.421 0.723,0.341c0.336,-0.079 0.558,-0.361 0.495,-0.629c-0.063,-0.268 -0.387,-0.42 -0.723,-0.341Zm1.295,-0.777c-0.257,0.244 -0.308,0.608 -0.115,0.813c0.194,0.204 0.559,0.171 0.815,-0.072c0.257,-0.245 0.308,-0.609 0.115,-0.814c-0.194,-0.204 -0.558,-0.172 -0.815,0.073Zm-4.374,-1.115c-0.279,0.065 -0.437,0.404 -0.356,0.756c0.082,0.352 0.374,0.584 0.653,0.519c0.278,-0.065 0.437,-0.404 0.355,-0.756c-0.082,-0.352 -0.374,-0.584 -0.652,-0.519Zm0.644,2.555c0.159,-0.123 0.159,-0.392 -0.001,-0.599c-0.16,-0.208 -0.419,-0.275 -0.578,-0.152c-0.159,0.124 -0.159,0.393 0.001,0.6c0.16,0.207 0.419,0.275 0.578,0.151Zm1.189,0.085c-0.253,-0.066 -0.498,0.034 -0.547,0.225c-0.05,0.19 0.115,0.398 0.368,0.464c0.253,0.066 0.498,-0.035 0.547,-0.225c0.05,-0.19 -0.115,-0.398 -0.368,-0.464Zm2.505,0.037c-0.197,0.16 -0.275,0.39 -0.175,0.514c0.1,0.124 0.341,0.095 0.538,-0.065c0.196,-0.16 0.274,-0.39 0.174,-0.514c-0.1,-0.124 -0.341,-0.095 -0.537,0.065Zm1.746,-2.608c-0.172,-0.038 -0.36,0.152 -0.42,0.424c-0.059,0.271 0.032,0.522 0.204,0.561c0.172,0.038 0.361,-0.152 0.42,-0.424c0.06,-0.272 -0.032,-0.523 -0.204,-0.561Zm-0.246,-1.626c-0.17,0.049 -0.245,0.306 -0.168,0.573c0.076,0.268 0.276,0.445 0.445,0.396c0.169,-0.049 0.245,-0.305 0.168,-0.572c-0.076,-0.268 -0.276,-0.445 -0.445,-0.397Zm-0.287,-1.29c-0.107,0.085 -0.087,0.289 0.043,0.455c0.131,0.166 0.324,0.231 0.43,0.146c0.108,-0.084 0.088,-0.288 -0.043,-0.454c-0.13,-0.166 -0.323,-0.231 -0.43,-0.147Zm-1.42,-0.77c-0.067,0.135 0.054,0.33 0.269,0.437c0.216,0.106 0.443,0.084 0.51,-0.051c0.066,-0.134 -0.055,-0.33 -0.27,-0.437c-0.215,-0.106 -0.443,-0.083 -0.509,0.051Zm-2.792,0.274c0.085,0.178 0.347,0.228 0.585,0.112c0.237,-0.115 0.361,-0.352 0.275,-0.529c-0.085,-0.177 -0.347,-0.228 -0.584,-0.112c-0.238,0.115 -0.361,0.352 -0.276,0.529Zm1.767,6.662c-0.194,0.027 -0.335,0.16 -0.316,0.295c0.019,0.136 0.191,0.225 0.384,0.198c0.193,-0.027 0.335,-0.159 0.316,-0.295c-0.019,-0.136 -0.191,-0.225 -0.384,-0.198Zm2.904,-1.583c-0.104,-0.082 -0.292,-0.015 -0.42,0.149c-0.128,0.164 -0.148,0.363 -0.044,0.444c0.104,0.082 0.291,0.015 0.419,-0.149c0.128,-0.164 0.148,-0.363 0.045,-0.444Zm-2.897,-5.575c0.194,0.021 0.363,-0.072 0.378,-0.209c0.015,-0.137 -0.13,-0.264 -0.324,-0.285c-0.194,-0.021 -0.364,0.072 -0.378,0.208c-0.015,0.137 0.13,0.265 0.324,0.286Zm-2.415,0.107c0.125,-0.091 0.175,-0.236 0.111,-0.325c-0.064,-0.088 -0.217,-0.085 -0.342,0.006c-0.126,0.091 -0.175,0.237 -0.111,0.325c0.063,0.089 0.217,0.086 0.342,-0.006Zm-1.392,0.513c-0.102,0.118 -0.121,0.268 -0.042,0.336c0.078,0.068 0.224,0.028 0.325,-0.09c0.101,-0.117 0.12,-0.268 0.042,-0.336c-0.079,-0.068 -0.224,-0.027 -0.325,0.09Zm-0.204,1.799c0.144,0.034 0.3,-0.103 0.349,-0.308c0.048,-0.204 -0.029,-0.398 -0.172,-0.432c-0.145,-0.035 -0.3,0.103 -0.349,0.307c-0.049,0.204 0.028,0.398 0.172,0.433Zm-0.014,1.533c0.159,-0.01 0.277,-0.189 0.262,-0.399c-0.014,-0.209 -0.155,-0.37 -0.314,-0.359c-0.16,0.01 -0.277,0.189 -0.263,0.399c0.014,0.21 0.155,0.371 0.315,0.359Zm0.291,1.043c-0.076,-0.196 -0.245,-0.312 -0.377,-0.26c-0.133,0.052 -0.179,0.252 -0.103,0.448c0.076,0.196 0.245,0.313 0.378,0.261c0.133,-0.052 0.178,-0.253 0.102,-0.449Zm0.202,1.345c-0.08,-0.127 -0.217,-0.184 -0.306,-0.127c-0.089,0.056 -0.097,0.205 -0.017,0.331c0.079,0.127 0.217,0.184 0.305,0.128c0.09,-0.056 0.097,-0.205 0.018,-0.332Zm1.269,0.995c0.06,-0.095 0.005,-0.239 -0.124,-0.321c-0.129,-0.082 -0.282,-0.071 -0.342,0.024c-0.06,0.095 -0.004,0.239 0.125,0.321c0.128,0.082 0.282,0.071 0.341,-0.024Zm1.306,0.493c0.008,-0.112 -0.11,-0.211 -0.262,-0.221c-0.152,-0.011 -0.282,0.072 -0.289,0.185c-0.007,0.112 0.11,0.211 0.262,0.221c0.153,0.011 0.282,-0.073 0.289,-0.185Zm2.06,-0.271c-0.128,0.055 -0.195,0.187 -0.149,0.293c0.046,0.106 0.186,0.147 0.314,0.092c0.128,-0.055 0.195,-0.186 0.149,-0.293c-0.046,-0.106 -0.186,-0.147 -0.314,-0.092Zm1.131,-0.64c-0.096,0.101 -0.107,0.248 -0.024,0.328c0.084,0.08 0.23,0.062 0.325,-0.039c0.097,-0.1 0.108,-0.247 0.024,-0.327c-0.083,-0.08 -0.229,-0.063 -0.325,0.038Zm1.035,-0.777c-0.085,0.095 -0.109,0.212 -0.055,0.26c0.054,0.049 0.167,0.012 0.251,-0.083c0.085,-0.094 0.11,-0.211 0.055,-0.26c-0.054,-0.049 -0.167,-0.012 -0.251,0.083Zm0.559,-1.135c0.025,-0.159 -0.03,-0.301 -0.124,-0.315c-0.093,-0.015 -0.189,0.103 -0.214,0.263c-0.025,0.16 0.031,0.3 0.124,0.315c0.094,0.015 0.189,-0.103 0.214,-0.263Zm-0.066,-1.716c-0.095,0.002 -0.169,0.134 -0.167,0.295c0.003,0.162 0.081,0.292 0.176,0.29c0.094,-0.001 0.169,-0.133 0.166,-0.295c-0.002,-0.161 -0.081,-0.291 -0.175,-0.29Zm-0.259,-1.078c0.053,0.146 0.168,0.238 0.256,0.206c0.089,-0.033 0.118,-0.178 0.064,-0.324c-0.053,-0.146 -0.168,-0.238 -0.256,-0.205c-0.089,0.033 -0.118,0.177 -0.064,0.323Zm-0.004,-1.116c0.045,-0.026 0.037,-0.123 -0.016,-0.217c-0.054,-0.095 -0.134,-0.151 -0.179,-0.125c-0.044,0.025 -0.037,0.123 0.017,0.217c0.054,0.095 0.134,0.151 0.178,0.125Zm-8.174,3.139c-0.033,-0.123 -0.121,-0.205 -0.194,-0.184c-0.074,0.02 -0.106,0.136 -0.072,0.257c0.033,0.123 0.12,0.205 0.194,0.184c0.073,-0.02 0.106,-0.136 0.072,-0.257Zm1.148,3.001c-0.032,0.033 0.005,0.122 0.083,0.198c0.078,0.077 0.168,0.112 0.2,0.079c0.032,-0.033 -0.005,-0.122 -0.083,-0.199c-0.078,-0.077 -0.168,-0.111 -0.2,-0.078Zm1.293,0.679c-0.107,-0.021 -0.201,-0.002 -0.21,0.044c-0.009,0.045 0.071,0.1 0.177,0.121c0.108,0.022 0.202,0.002 0.21,-0.044c0.01,-0.045 -0.07,-0.099 -0.177,-0.121Zm3.167,0.355c-0.085,0.02 -0.148,0.067 -0.139,0.103c0.009,0.037 0.085,0.049 0.171,0.029c0.086,-0.021 0.148,-0.067 0.14,-0.103c-0.009,-0.037 -0.086,-0.049 -0.172,-0.029Zm-2.036,0.084c-0.088,-0.005 -0.161,0.022 -0.163,0.059c-0.002,0.037 0.067,0.071 0.155,0.076c0.088,0.006 0.161,-0.021 0.163,-0.058c0.003,-0.037 -0.067,-0.072 -0.155,-0.077Zm3.105,-0.589c-0.071,0.051 -0.112,0.118 -0.09,0.148c0.022,0.031 0.098,0.013 0.169,-0.038c0.072,-0.052 0.112,-0.118 0.09,-0.148c-0.021,-0.031 -0.097,-0.014 -0.169,0.038Zm0.977,-0.659c-0.062,0.062 -0.092,0.134 -0.065,0.161c0.026,0.026 0.098,-0.003 0.161,-0.065c0.062,-0.063 0.091,-0.135 0.065,-0.161c-0.026,-0.027 -0.098,0.002 -0.161,0.065Zm0.776,-0.791c-0.057,0.057 -0.086,0.12 -0.065,0.141c0.02,0.021 0.084,-0.008 0.141,-0.065c0.056,-0.057 0.086,-0.12 0.065,-0.141c-0.021,-0.021 -0.084,0.008 -0.141,0.065Zm0.417,-1.043c-0.03,-0.007 -0.07,0.054 -0.089,0.136c-0.019,0.082 -0.01,0.155 0.02,0.162c0.03,0.007 0.069,-0.054 0.089,-0.136c0.019,-0.083 0.01,-0.155 -0.02,-0.162Zm0.165,-1.207c-0.03,-0.002 -0.059,0.066 -0.063,0.15c-0.004,0.084 0.018,0.154 0.049,0.155c0.031,0.002 0.059,-0.066 0.063,-0.15c0.004,-0.084 -0.018,-0.154 -0.049,-0.155Zm-4.386,4.034c-0.126,0.013 -0.223,0.073 -0.216,0.133c0.007,0.059 0.114,0.096 0.24,0.082c0.125,-0.014 0.222,-0.074 0.215,-0.133c-0.007,-0.06 -0.114,-0.096 -0.239,-0.082Zm-4.625,-6.287c0.051,0.015 0.122,-0.076 0.157,-0.202c0.035,-0.125 0.021,-0.239 -0.03,-0.253c-0.051,-0.015 -0.121,0.076 -0.156,0.201c-0.036,0.126 -0.022,0.24 0.029,0.254Zm-0.029,3.542c-0.046,0.026 -0.04,0.128 0.015,0.228c0.055,0.1 0.138,0.161 0.184,0.135c0.047,-0.026 0.041,-0.128 -0.015,-0.229c-0.054,-0.1 -0.137,-0.16 -0.184,-0.134Zm1.4,-5.541c0.073,-0.064 0.112,-0.14 0.086,-0.169c-0.026,-0.03 -0.106,-0.002 -0.179,0.063c-0.073,0.064 -0.112,0.14 -0.086,0.169c0.025,0.03 0.105,0.001 0.179,-0.063Zm-0.889,0.826c0.056,-0.08 0.076,-0.163 0.045,-0.185c-0.032,-0.023 -0.104,0.024 -0.159,0.103c-0.057,0.08 -0.077,0.163 -0.045,0.185c0.032,0.023 0.103,-0.023 0.159,-0.103Zm8.534,2.455c0.039,-0.005 0.059,-0.087 0.046,-0.184c-0.013,-0.097 -0.055,-0.171 -0.093,-0.166c-0.039,0.005 -0.059,0.088 -0.046,0.185c0.013,0.097 0.055,0.171 0.093,0.165Zm-0.263,-1.499c-0.036,0.016 -0.034,0.101 0.003,0.191c0.038,0.09 0.097,0.151 0.133,0.136c0.036,-0.015 0.035,-0.1 -0.003,-0.19c-0.038,-0.091 -0.097,-0.152 -0.133,-0.137Zm-0.172,-0.711c0.028,-0.018 0.014,-0.09 -0.032,-0.16c-0.046,-0.071 -0.106,-0.113 -0.134,-0.095c-0.027,0.019 -0.013,0.091 0.032,0.161c0.046,0.071 0.106,0.113 0.134,0.094Zm-0.822,-0.761c0.026,-0.022 0.004,-0.092 -0.049,-0.156c-0.053,-0.066 -0.117,-0.102 -0.143,-0.08c-0.026,0.021 -0.004,0.091 0.049,0.156c0.053,0.065 0.117,0.101 0.143,0.08Zm-1.07,-0.733c0.071,0.044 0.143,0.057 0.161,0.028c0.017,-0.029 -0.026,-0.087 -0.098,-0.132c-0.072,-0.043 -0.143,-0.056 -0.161,-0.027c-0.017,0.029 0.026,0.087 0.098,0.131Zm-1.068,-0.507c0.084,0.01 0.154,-0.01 0.158,-0.043c0.004,-0.034 -0.061,-0.068 -0.144,-0.078c-0.083,-0.01 -0.154,0.01 -0.158,0.043c-0.004,0.033 0.061,0.068 0.144,0.078Zm-3.165,0.298c0.08,-0.028 0.135,-0.076 0.124,-0.108c-0.011,-0.032 -0.084,-0.035 -0.163,-0.007c-0.08,0.028 -0.135,0.076 -0.124,0.108c0.011,0.031 0.085,0.035 0.163,0.007Zm1.098,-0.384c0.084,-0.005 0.15,-0.037 0.148,-0.071c-0.003,-0.033 -0.072,-0.056 -0.156,-0.05c-0.083,0.005 -0.149,0.037 -0.147,0.071c0.002,0.033 0.072,0.056 0.155,0.05Zm-0.747,-0.008c0.072,-0.014 0.126,-0.049 0.12,-0.078c-0.006,-0.029 -0.068,-0.041 -0.141,-0.026c-0.072,0.014 -0.126,0.049 -0.12,0.078c0.006,0.029 0.069,0.04 0.141,0.026Zm1.786,-0.192c0.074,0.003 0.135,-0.018 0.136,-0.048c0.001,-0.029 -0.057,-0.056 -0.131,-0.059c-0.073,-0.003 -0.134,0.019 -0.135,0.048c-0.001,0.029 0.057,0.056 0.13,0.059Zm-3.708,1.252c0.052,-0.052 0.077,-0.111 0.056,-0.132c-0.021,-0.021 -0.079,0.005 -0.131,0.057c-0.052,0.053 -0.077,0.112 -0.056,0.133c0.021,0.02 0.08,-0.005 0.131,-0.058Zm-1.407,2.717c0.029,0.004 0.062,-0.051 0.073,-0.124c0.011,-0.073 -0.004,-0.136 -0.033,-0.14c-0.029,-0.005 -0.061,0.051 -0.073,0.124c-0.011,0.073 0.004,0.136 0.033,0.14Zm0.293,-1.19c0.027,0.011 0.071,-0.036 0.098,-0.105c0.027,-0.069 0.026,-0.133 -0.001,-0.143c-0.028,-0.011 -0.071,0.035 -0.098,0.104c-0.027,0.069 -0.026,0.134 0.001,0.144Zm-0.42,2.064c-0.03,-0.001 -0.055,0.058 -0.056,0.132c-0.001,0.073 0.021,0.134 0.051,0.134c0.029,0.001 0.054,-0.058 0.055,-0.132c0.002,-0.074 -0.021,-0.134 -0.05,-0.134Zm0.115,1.214c-0.026,0.012 -0.025,0.076 0.005,0.144c0.029,0.068 0.075,0.113 0.102,0.101c0.026,-0.012 0.024,-0.076 -0.005,-0.143c-0.029,-0.068 -0.075,-0.113 -0.102,-0.102Zm0.88,1.856c-0.021,0.021 0.005,0.08 0.057,0.132c0.052,0.052 0.112,0.076 0.132,0.056c0.021,-0.021 -0.005,-0.08 -0.057,-0.132c-0.053,-0.052 -0.111,-0.077 -0.132,-0.056Zm-0.519,-3.372c0.091,0.023 0.197,-0.081 0.235,-0.233c0.038,-0.152 -0.006,-0.295 -0.098,-0.317c-0.092,-0.023 -0.197,0.082 -0.234,0.233c-0.039,0.152 0.005,0.294 0.097,0.317Zm3.628,-3.638c0.154,-0.021 0.266,-0.126 0.251,-0.234c-0.014,-0.108 -0.15,-0.178 -0.304,-0.158c-0.153,0.021 -0.266,0.126 -0.251,0.234c0.014,0.108 0.151,0.178 0.304,0.158Zm2.199,-0.143c-0.024,0.067 0.049,0.156 0.165,0.199c0.116,0.043 0.23,0.023 0.254,-0.043c0.025,-0.067 -0.049,-0.157 -0.164,-0.199c-0.116,-0.044 -0.23,-0.024 -0.255,0.043Zm1.56,0.931c0.052,-0.048 0.028,-0.161 -0.056,-0.253c-0.083,-0.091 -0.193,-0.126 -0.245,-0.078c-0.053,0.048 -0.028,0.161 0.055,0.253c0.083,0.091 0.193,0.126 0.246,0.078Zm-2.579,-1.235c0.108,0.006 0.198,-0.04 0.202,-0.102c0.003,-0.062 -0.081,-0.118 -0.189,-0.124c-0.108,-0.006 -0.198,0.04 -0.201,0.103c-0.004,0.062 0.081,0.117 0.188,0.123Zm-3.008,2.426c0.153,0.132 0.415,0.079 0.586,-0.12c0.171,-0.198 0.186,-0.466 0.033,-0.598c-0.152,-0.133 -0.414,-0.079 -0.585,0.119c-0.171,0.198 -0.186,0.466 -0.034,0.599Z" style="fill:#636467;fill-rule:nonzero;"/></svg>